<svg width="25" height="16" viewBox="0 0 25 16" fill="none" xmlns="http://www.w3.org/2000/svg">
<path d="M2.49999 8.64921C3.16666 8.31588 3.99999 8.64921 3.99999 8.64921C5.19999 8.64921 8.49999 10.3159 9.99999 11.1492L5.99999 4.14921C5.99999 3.92835 5.49999 3.42835 5.49999 2.64921C5.49999 1.44921 6.83332 0.761677 7.49999 0.428345C10.1667 0.261679 15.9 -0.250789 17.5 0.149211C19.5 0.649211 24 10.4283 24.5 11.1492C24.903 11.7302 25 12.4283 25 12.9283C25 13.4283 24 13.9283 23.5 14.4283C23.1 14.8283 22.1667 15.1492 22 15.1492C19.3333 15.1492 13.9 15.0492 13.5 14.6492C11.5 14.1492 11.5 12.6492 10.5 12.1492C9.49999 11.6492 9.49999 11.6492 7.99999 12.1492C6.79999 12.5492 5.49999 14.3159 4.99999 15.1492C4.83332 15.1492 4 15.4283 2.99999 15.1492C1.55522 14.7459 -7.5863e-06 13.4283 0 12.9283V12.9283C1.09371e-05 12.2075 1.51694e-05 11.9283 0.499989 10.6492C0.791237 9.90411 1.83332 8.98254 2.49999 8.64921Z" fill="white"/>
</svg>
